<svg xmlns="http://www.w3.org/2000/svg" viewBox="0 0 800 1000" width="800" height="1000" role="img">
  <defs>
    <linearGradient id="field" x1="0" y1="0" x2="0.4" y2="1">
      <stop offset="0" stop-color="#f9f8f5"/>
      <stop offset="1" stop-color="#e8e6e3"/>
    </linearGradient>
    <linearGradient id="cloth" x1="0.1" y1="0" x2="0.9" y2="1">
      <stop offset="0" stop-color="#cfc0a8"/>
      <stop offset="0.55" stop-color="#C9B79C"/>
      <stop offset="1" stop-color="#ac9c86"/>
    </linearGradient>
    
  <pattern id="w" width="6" height="6" patternUnits="userSpaceOnUse">
    <rect width="6" height="6" fill="none"/>
    <path d="M0 1.5H6M0 4.5H6" stroke="#d5c7b2" stroke-width="1" opacity="0.22"/>
    <path d="M1.5 0V6M4.5 0V6" stroke="#d5c7b2" stroke-width="1" opacity="0.1"/>
  </pattern>
  </defs>
  <rect width="800" height="1000" fill="url(#field)"/>
  <rect width="800" height="1000" fill="url(#w)"/>
  <ellipse cx="400" cy="792" rx="170" ry="22" fill="#645c50" opacity="0.08"/>
  <g>
    <path d="M306 258C328 232 472 232 494 258L566 296L548 566L516 560L516 754C440 772 360 772 284 754L284 560L252 566L234 296Z" fill="url(#cloth)" stroke="#d5c7b2" stroke-width="3" stroke-opacity="0.55" stroke-linejoin="round"/>
    <path d="M400 258L400 748" fill="none" stroke="#d5c7b2" stroke-width="3" opacity="0.5"/>
    <path d="M306 258L400 320L494 258" fill="none" stroke="#d5c7b2" stroke-width="3" opacity="0.5"/>

  </g>
</svg>