<svg xmlns="http://www.w3.org/2000/svg" viewBox="0 0 800 1000" width="800" height="1000" role="img">
  <defs>
    <linearGradient id="field" x1="0" y1="0" x2="0.4" y2="1">
      <stop offset="0" stop-color="#f6f3ef"/>
      <stop offset="1" stop-color="#e4e0da"/>
    </linearGradient>
    <linearGradient id="cloth" x1="0.1" y1="0" x2="0.9" y2="1">
      <stop offset="0" stop-color="#a67d56"/>
      <stop offset="0.55" stop-color="#9A6B3F"/>
      <stop offset="1" stop-color="#845d38"/>
    </linearGradient>
    
  <pattern id="w" width="6" height="6" patternUnits="userSpaceOnUse">
    <rect width="6" height="6" fill="none"/>
    <path d="M0 1.5H6M0 4.5H6" stroke="#b08c69" stroke-width="1" opacity="0.22"/>
    <path d="M1.5 0V6M4.5 0V6" stroke="#b08c69" stroke-width="1" opacity="0.1"/>
  </pattern>
  </defs>
  <rect width="800" height="1000" fill="url(#field)"/>
  <rect width="800" height="1000" fill="url(#w)"/>
  <ellipse cx="400" cy="720" rx="200" ry="18" fill="#4f3926" opacity="0.1"/>
  <g>
    <path d="M212 640C240 596 300 560 360 556L420 552C470 548 520 566 552 600L596 646C610 660 606 686 588 692L232 700C206 700 196 672 212 640Z" fill="url(#cloth)" stroke="#b08c69" stroke-width="3" stroke-opacity="0.55" stroke-linejoin="round"/>
    <path d="M240 664H570" fill="none" stroke="#b08c69" stroke-width="3" opacity="0.5"/>
    <path d="M330 600L400 664" fill="none" stroke="#b08c69" stroke-width="3" opacity="0.5"/>

    <rect x="206" y="678" width="392" height="30" rx="15" fill="#3a2c1f" opacity="0.85"/>
  </g>
</svg>